<?xml version="1.0" encoding="utf-8"?>
<!-- Generator: Adobe Illustrator 18.0.0, SVG Export Plug-In . SVG Version: 6.00 Build 0)  -->
<!DOCTYPE svg PUBLIC "-//W3C//DTD SVG 1.1//EN" "http://www.w3.org/Graphics/SVG/1.1/DTD/svg11.dtd">
<svg version="1.1" id="Calque_1" xmlns="http://www.w3.org/2000/svg" xmlns:xlink="http://www.w3.org/1999/xlink" x="0px" y="0px"
	 viewBox="0 0 113.5 50" enable-background="new 0 0 113.5 50" xml:space="preserve">
<g>
	<g>
		<g>
			<path d="M5.2,6.4c-0.3,0-0.6-0.1-0.9-0.2S3.9,6,3.7,5.8C3.5,5.6,3.4,5.3,3.3,5.1C3.2,4.8,3.1,4.5,3.1,4.2c0-0.3,0.1-0.6,0.2-0.9
				s0.2-0.5,0.4-0.7c0.2-0.2,0.4-0.4,0.7-0.5s0.6-0.2,0.9-0.2c0.2,0,0.5,0,0.7,0.1C6.1,2,6.3,2.1,6.4,2.2c0.2,0.1,0.4,0.3,0.5,0.5
				C7,3,7.1,3.2,7.1,3.4h-1c0-0.2-0.1-0.4-0.3-0.5S5.5,2.7,5.2,2.7c-0.2,0-0.3,0-0.5,0.1C4.6,2.9,4.5,3,4.4,3.1S4.2,3.4,4.2,3.6
				c0,0.2-0.1,0.4-0.1,0.6c0,0.2,0,0.4,0.1,0.6c0.1,0.2,0.1,0.3,0.2,0.5c0.1,0.1,0.2,0.2,0.4,0.3c0.1,0.1,0.3,0.1,0.5,0.1
				c0.3,0,0.5-0.1,0.6-0.2C6,5.2,6.1,5,6.1,4.8h1C7.1,5,7.1,5.2,7,5.4C6.9,5.6,6.8,5.8,6.6,5.9C6.5,6.1,6.3,6.2,6,6.3
				C5.8,6.4,5.5,6.4,5.2,6.4z"/>
		</g>
		<g>
			<path d="M5.3,11.9c-0.3,0-0.6-0.1-0.9-0.2s-0.5-0.3-0.7-0.5c-0.2-0.2-0.3-0.4-0.4-0.7c-0.1-0.3-0.1-0.6-0.1-0.9
				c0-0.3,0-0.6,0.1-0.9S3.5,8.2,3.7,8c0.2-0.2,0.4-0.4,0.7-0.5s0.6-0.2,0.9-0.2c0.3,0,0.6,0.1,0.9,0.2C6.4,7.6,6.6,7.8,6.8,8
				s0.3,0.4,0.4,0.7C7.4,9,7.4,9.3,7.4,9.6c0,0.3,0,0.6-0.1,0.9C7.2,10.8,7,11,6.8,11.2c-0.2,0.2-0.4,0.4-0.7,0.5
				C5.9,11.8,5.6,11.9,5.3,11.9z M5.3,11c0.2,0,0.4,0,0.5-0.1c0.1-0.1,0.3-0.2,0.4-0.3s0.2-0.3,0.2-0.5c0-0.2,0.1-0.4,0.1-0.6
				c0-0.2,0-0.4-0.1-0.6c0-0.2-0.1-0.3-0.2-0.5S5.9,8.3,5.8,8.2C5.6,8.2,5.5,8.1,5.3,8.1c-0.2,0-0.4,0-0.5,0.1
				C4.6,8.3,4.5,8.4,4.4,8.6C4.3,8.7,4.2,8.8,4.2,9c0,0.2-0.1,0.4-0.1,0.6c0,0.2,0,0.4,0.1,0.6c0,0.2,0.1,0.3,0.2,0.5
				c0.1,0.1,0.2,0.2,0.4,0.3C4.9,11,5.1,11,5.3,11z"/>
		</g>
	</g>
	<text transform="matrix(1 0 0 1 7.5864 11.7446)" font-family="'NHaasGroteskTXPro-75Bd'" font-size="5.836"> </text>
	<g>
		<g>
			<path d="M3.3,12.8h1.8c0.3,0,0.6,0.1,0.8,0.2s0.5,0.3,0.6,0.4c0.2,0.2,0.3,0.4,0.4,0.7s0.1,0.6,0.1,0.9c0,0.3,0,0.6-0.1,0.9
				c-0.1,0.3-0.2,0.5-0.4,0.7c-0.2,0.2-0.4,0.3-0.6,0.4s-0.6,0.2-0.9,0.2H3.3V12.8z M5,16.3c0.4,0,0.7-0.1,0.8-0.3
				c0.2-0.2,0.3-0.5,0.3-1c0-0.4-0.1-0.7-0.3-1c-0.2-0.2-0.5-0.4-0.8-0.4H4.3v2.7H5z"/>
		</g>
	</g>
	<text transform="matrix(1 0 0 1 7.2886 17.1641)" font-family="'NHaasGroteskTXPro-75Bd'" font-size="5.836"> </text>
	<g>
		<g>
			<path d="M3.3,18.2h3.3v0.8H4.3v0.9h2v0.8h-2v1h2.3v0.9H3.3V18.2z"/>
		</g>
	</g>
	<path d="M10.7,47.8h12.8v-0.8H10.7V47.8z M10.7,1.8v0.8h5.9l0.8,0.9l16.9,45.2h1l3.2-9.7L24.3,1.8H10.7z M50.3,1.8v45.2h-6.1v0.8
		h19.4v-0.8h-6.1V2.6h5.9l0.8,0.9l16.9,45.2h1l3.2-9.7L71.2,1.8H50.3z M97.3,1.8v45.2h-6.1v0.8h19.4v-0.8h-6.1V2.6h6.1V1.8H97.3z"/>
</g>
</svg>
