<?xml version="1.0" encoding="utf-8"?>
<!-- Generator: Adobe Illustrator 18.0.0, SVG Export Plug-In . SVG Version: 6.00 Build 0)  -->
<!DOCTYPE svg PUBLIC "-//W3C//DTD SVG 1.1//EN" "http://www.w3.org/Graphics/SVG/1.1/DTD/svg11.dtd">
<svg version="1.1" id="Calque_1" xmlns="http://www.w3.org/2000/svg" xmlns:xlink="http://www.w3.org/1999/xlink" x="0px" y="0px"
	 viewBox="0 0 221 46" enable-background="new 0 0 221 46" xml:space="preserve">
<g id="logo">
	<path d="M63.6,44.8H76V44H63.6V44.8z M63.6,0.3v0.8h5.7l0.8,0.9l16.4,43.8h0.9l3.1-9.4L76.8,0.3H63.6z M102,0.3V44h-5.9v0.8h18.8
		V44H109V1.1h5.7l0.8,0.9l16.4,43.8h0.9l3.1-9.4L122.2,0.3H102z M147.4,0.3V44h-5.9v0.8h18.8V44h-5.9V1.1h5.9V0.3L147.4,0.3
		L147.4,0.3z"/>
</g>
<g>
	<rect x="46.1" y="0.3" width="6.8" height="44.7"/>
	<animate attributeName="cx" attributeType="XML"
             from="30"  to="470"
             begin="0s" dur="5s"
             fill="remove" repeatCount="indefinite"/>
</g>
<g>
	<rect x="194.4" y="0.3" width="6.8" height="44.7"/>
</g>
<g>
	<rect x="147.4" y="0.3" width="6.8" height="44.6"/>
</g>
<g>
	<rect x="102.2" y="0.3" width="6.8" height="44.6"/>
</g>
<g>
	<rect x="0.2" y="0.3" width="6.8" height="44.7"/>
</g>
<g>
	<rect x="26.1" y="0.3" width="1" height="44.7"/>
</g>
<g>
	<rect x="173.9" y="0.3" width="1" height="44.7"/>
</g>
<g>
	<g>
		<rect x="219.8" y="0.3" width="1" height="44.7"/>
	</g>
</g>
</svg>
