<?xml version="1.0" encoding="utf-8"?>
<!-- Generator: Adobe Illustrator 18.0.0, SVG Export Plug-In . SVG Version: 6.00 Build 0)  -->
<!DOCTYPE svg PUBLIC "-//W3C//DTD SVG 1.1//EN" "http://www.w3.org/Graphics/SVG/1.1/DTD/svg11.dtd">
<svg version="1.1" id="Calque_1" xmlns="http://www.w3.org/2000/svg" xmlns:xlink="http://www.w3.org/1999/xlink" x="0px" y="0px"
	 viewBox="0 0 161 45" enable-background="new 0 0 161 45" xml:space="preserve">
<g>
	<path d="M64.5,44.3h12.4v-0.8H64.5V44.3z M64.5-0.2v0.8h5.7l0.8,0.9l16.4,43.8h0.9l3.1-9.4L77.6-0.2H64.5z M102.9-0.2v43.7H97v0.8
		h18.8v-0.8h-5.9V0.6h5.7l0.8,0.9l16.4,43.8h0.9l3.1-9.4L123-0.2H102.9z M148.3-0.2v43.7h-5.9v0.8h18.8v-0.8h-5.9V0.6h5.9v-0.8
		L148.3-0.2L148.3-0.2z"/>
	<g>
		<g>
			<defs>
				<rect id="SVGID_1_" x="-0.2" y="-0.2" width="161.4" height="45.5"/>
			</defs>
			<clipPath id="SVGID_2_">
				<use xlink:href="#SVGID_1_"  overflow="visible"/>
			</clipPath>
			<g clip-path="url(#SVGID_2_)">
				<g enable-background="new    ">
					<path d="M5.4,11.6c-0.8,0-1.5-0.1-2.1-0.4c-0.6-0.3-1.1-0.7-1.6-1.2S1,8.9,0.8,8.3C0.5,7.6,0.4,6.8,0.4,6
						c0-0.8,0.1-1.5,0.3-2.2C1,3.1,1.3,2.5,1.8,2s1-0.9,1.6-1.2s1.3-0.4,2.1-0.4c0.6,0,1.2,0.1,1.7,0.3s0.9,0.4,1.3,0.7
						c0.4,0.3,0.7,0.7,0.9,1.1s0.4,0.9,0.4,1.4H8.5C8.4,3.2,8,2.6,7.5,2.2C7,1.8,6.3,1.6,5.5,1.6c-0.6,0-1.1,0.1-1.6,0.3
						C3.5,2.1,3.1,2.5,2.8,2.9C2.4,3.2,2.2,3.7,2,4.3C1.9,4.8,1.8,5.4,1.8,6c0,0.7,0.1,1.3,0.3,1.8c0.2,0.5,0.4,1,0.7,1.4
						S3.5,9.9,4,10.1s1,0.3,1.5,0.3c0.5,0,1-0.1,1.3-0.2s0.7-0.4,0.9-0.6C8,9.3,8.2,8.9,8.4,8.6c0.1-0.4,0.2-0.7,0.3-1.1h1.3
						c0,0.5-0.1,1.1-0.4,1.6s-0.5,1-0.9,1.4C7.9,11.2,6.8,11.6,5.4,11.6z"/>
					<path d="M20.3,11.6c-0.8,0-1.5-0.1-2.2-0.4c-0.7-0.3-1.2-0.7-1.7-1.2c-0.4-0.5-0.8-1.1-1-1.8C15.2,7.6,15,6.8,15,6
						s0.1-1.5,0.4-2.2c0.2-0.7,0.6-1.3,1-1.8c0.5-0.5,1-0.9,1.7-1.2c0.6-0.3,1.4-0.4,2.2-0.4s1.5,0.1,2.2,0.4
						c0.6,0.3,1.2,0.7,1.6,1.2c0.5,0.5,0.8,1.1,1,1.8c0.2,0.7,0.4,1.4,0.4,2.2s-0.1,1.5-0.4,2.2c-0.2,0.7-0.6,1.3-1,1.8
						c-0.4,0.5-1,0.9-1.6,1.2C21.8,11.5,21.1,11.6,20.3,11.6z M20.3,10.4c0.6,0,1.2-0.1,1.7-0.3c0.5-0.2,0.9-0.5,1.2-0.9
						c0.3-0.4,0.6-0.9,0.7-1.4s0.2-1.1,0.2-1.8s-0.1-1.2-0.2-1.8s-0.4-1-0.7-1.4c-0.3-0.4-0.7-0.7-1.2-0.9c-0.5-0.2-1-0.3-1.7-0.3
						s-1.2,0.1-1.7,0.3c-0.5,0.2-0.9,0.5-1.2,0.9c-0.3,0.4-0.6,0.9-0.7,1.4S16.4,5.4,16.4,6s0.1,1.2,0.2,1.8s0.4,1,0.7,1.4
						c0.3,0.4,0.7,0.7,1.2,0.9C19.1,10.3,19.7,10.4,20.3,10.4z"/>
					<path d="M31.1,0.7H35c0.8,0,1.5,0.1,2.1,0.4c0.6,0.3,1.1,0.6,1.5,1.1c0.4,0.5,0.7,1,0.9,1.7c0.2,0.7,0.3,1.4,0.3,2.2
						c0,0.8-0.1,1.5-0.3,2.2c-0.2,0.7-0.5,1.2-0.9,1.7c-0.4,0.5-0.9,0.8-1.5,1.1s-1.3,0.4-2.1,0.4h-3.8V0.7z M34.9,10.2
						c0.6,0,1.2-0.1,1.6-0.3c0.4-0.2,0.8-0.5,1.1-0.8c0.3-0.4,0.5-0.8,0.6-1.3s0.2-1.1,0.2-1.7s-0.1-1.2-0.2-1.7
						c-0.1-0.5-0.3-1-0.6-1.3S37,2.3,36.6,2.1s-1-0.3-1.6-0.3h-2.5v8.4H34.9z"/>
				</g>
				<g enable-background="new    ">
					<path d="M46,0.7h7.6v1.2h-6.2v3.4H53v1.1h-5.7v3.8h6.4v1.2H46V0.7z"/>
				</g>
			</g>
		</g>
	</g>
</g>
</svg>
